<svg width="88" height="80" viewBox="0 0 88 80" fill="none" xmlns="http://www.w3.org/2000/svg">
<path fill-rule="evenodd" clip-rule="evenodd" d="M61.4058 75.0549C60.296 74.8749 59.3082 74.8199 59.3082 74.2124C59.3082 73.9771 59.4433 73.7286 59.6596 73.5628C59.8493 73.4109 60.3502 73.3553 60.688 73.3553C61.0401 73.3553 61.3919 73.5353 61.6088 73.7699C61.7443 73.9357 61.9068 74.1985 61.9333 74.4752H63.7337C63.6932 73.7978 63.4089 73.1343 62.8947 72.7617C62.3934 72.3887 61.7443 71.9327 60.8508 71.9327C59.9981 71.9327 59.159 71.9605 58.5774 72.4026C57.9951 72.8312 57.5755 73.5492 57.5755 74.171C57.5755 74.5301 57.5486 74.9579 57.6838 75.2207C57.833 75.4831 58.2654 76.0221 58.6043 76.2293C59.0783 76.5049 60.1878 76.6158 60.7966 76.7816C61.2976 76.906 61.9068 76.9335 62.0423 77.4447C62.123 77.7488 62.0287 78.0245 61.758 78.2041C61.5005 78.3842 61.1079 78.5083 60.6751 78.5083C60.2286 78.5083 59.7951 78.3699 59.5782 78.094C59.3889 77.8312 59.2813 77.5827 59.1314 77.182H57.332C57.3726 78.0245 57.833 78.8541 58.401 79.3229C58.956 79.7793 59.7001 80 60.6475 80C61.5952 80 62.4206 79.8342 63.0302 79.3925C63.6251 78.9504 63.95 78.1214 63.95 77.4447C63.95 76.8643 63.7875 76.4086 63.5311 76.0496C63.0026 75.3448 62.0556 75.1515 61.4058 75.0549Z" fill="#D38D47" fill-opacity="0.5"/>
<path fill-rule="evenodd" clip-rule="evenodd" d="M37.9365 79.7794H39.7638V72.043H37.9365V79.7794Z" fill="#D38D47" fill-opacity="0.5"/>
<path fill-rule="evenodd" clip-rule="evenodd" d="M37.9365 71.5188H39.7774V69.6535H37.9365V71.5188Z" fill="#D38D47" fill-opacity="0.5"/>
<path fill-rule="evenodd" clip-rule="evenodd" d="M35.2708 73.0658C34.5939 72.527 33.7279 72.1545 32.7806 72.126C32.7535 72.126 32.7264 72.126 32.6858 72.126C30.5878 72.126 28.8828 73.8669 28.8828 75.994C28.8828 78.1353 30.5878 79.8898 32.6858 79.8898C32.7264 79.8898 32.7535 79.8898 32.7806 79.8898C33.7279 79.8756 34.5939 79.4887 35.2572 78.8256L35.2708 79.7793H37.0035V69.6534H35.2708V73.0658ZM32.7941 78.3011H32.7806C31.5355 78.3011 30.5199 77.265 30.5199 75.994C30.5199 74.7365 31.5355 73.6869 32.7806 73.6869H32.7941C34.0257 73.6869 35.0543 74.7233 35.0543 75.994C35.0543 77.265 34.0257 78.3011 32.7941 78.3011Z" fill="#D38D47" fill-opacity="0.5"/>
<path fill-rule="evenodd" clip-rule="evenodd" d="M46.6127 73.0376C45.9357 72.4996 45.0693 72.126 44.1223 72.0985C44.0947 72.0985 44.0546 72.0985 44.0277 72.0985C41.9296 72.0985 40.2109 73.8527 40.2109 75.9801C40.2109 78.1214 41.9296 79.8756 44.0277 79.8756C44.0546 79.8756 44.0947 79.8756 44.1223 79.8756C45.0693 79.8481 45.9224 79.4613 46.599 78.7985V79.7515H48.331V69.6402H46.599L46.6127 73.0376ZM44.1223 78.2872C42.8766 78.2872 41.8482 77.2376 41.8482 75.9665C41.8482 74.7098 42.8766 73.6733 44.1223 73.6733C45.3673 73.6733 46.3957 74.7098 46.3957 75.9665C46.3957 77.2376 45.3673 78.2872 44.1223 78.2872Z" fill="#D38D47" fill-opacity="0.5"/>
<path fill-rule="evenodd" clip-rule="evenodd" d="M26.4463 72.0429V72.7756C26.0947 72.3888 25.9323 72.2647 25.5259 72.1124C25.1605 71.9748 24.6599 71.8504 24.1727 71.8365C24.1454 71.8365 24.1185 71.8365 24.0914 71.8365C23.5092 71.8365 22.9952 71.9328 22.535 72.126C22.0886 72.3196 21.6689 72.6237 21.2898 73.0377C20.9513 73.3974 20.681 73.8395 20.4779 74.3226C20.302 74.8061 20.207 75.3034 20.207 75.8425C20.207 77.0162 20.5857 77.997 21.344 78.7572C22.0886 79.5301 23.0357 79.9312 24.1727 79.9312C24.1727 79.9312 24.1727 79.9312 24.1861 79.9312C24.6465 79.9312 25.147 79.7929 25.553 79.641C25.9593 79.4888 26.2572 79.3643 26.4463 79.0884V79.7929L28.2058 79.7793L28.1922 72.0297L26.4463 72.0429ZM24.1861 78.1767C24.1727 78.1767 24.1727 78.1767 24.1727 78.1767C22.9275 78.1767 21.9261 77.1542 21.9261 75.8832C21.9261 74.6267 22.9275 73.5906 24.1727 73.5906C24.1727 73.5906 24.1727 73.5906 24.1861 73.5906C25.4179 73.5906 26.4326 74.6267 26.4326 75.8832C26.4326 77.1542 25.4179 78.1767 24.1861 78.1767Z" fill="#D38D47" fill-opacity="0.5"/>
<path fill-rule="evenodd" clip-rule="evenodd" d="M55.1524 72.0158L55.1653 72.7481C54.8142 72.3752 54.6378 72.2504 54.2455 72.0846C53.8665 71.9466 53.3795 71.8365 52.8922 71.8222C52.865 71.8222 52.8381 71.8222 52.8105 71.8222C52.2289 71.8222 51.7147 71.9188 51.2546 72.0985C50.7942 72.2918 50.375 72.6098 50.0089 73.0105C49.6575 73.3699 49.3868 73.8113 49.1974 74.309C49.021 74.7782 48.9131 75.2895 48.9131 75.8279C48.9131 76.9887 49.3057 77.9696 50.0634 78.7432C50.7942 79.5027 51.7552 79.9037 52.8922 79.9037C53.3659 79.9037 53.8665 79.7793 54.2588 79.6135C54.6654 79.4613 54.9767 79.3369 55.1653 79.0606V79.7654L56.9252 79.7515L56.8979 72.0158H55.1524ZM52.8922 78.1628C51.6469 78.1489 50.6318 77.1271 50.6318 75.8564C50.6318 74.5992 51.6469 73.5767 52.8922 73.5628C54.1369 73.5628 55.1524 74.5992 55.1524 75.8564C55.1524 77.1271 54.1369 78.1628 52.8922 78.1628Z" fill="#D38D47" fill-opacity="0.5"/>
<path fill-rule="evenodd" clip-rule="evenodd" d="M65.4789 67.9268C65.4657 67.9268 65.452 67.9139 65.452 67.9139C64.2745 67.9139 63.3135 68.894 63.3135 70.0959C63.3135 71.2974 64.2745 72.2647 65.452 72.2647C65.452 72.2647 65.4657 72.2647 65.4789 72.2647C66.6429 72.2504 67.5903 71.2835 67.5903 70.0959C67.5903 68.9079 66.6429 67.9407 65.4789 67.9268ZM65.4789 71.9189C64.491 71.9189 63.6928 71.1042 63.6928 70.0959C63.6928 69.1154 64.491 68.2865 65.4789 68.2997C66.4668 68.2997 67.2657 69.1154 67.2657 70.1094C67.2657 71.1042 66.4668 71.9189 65.4789 71.9189Z" fill="#D38D47" fill-opacity="0.5"/>
<path fill-rule="evenodd" clip-rule="evenodd" d="M66.1009 70.4546C66.0338 70.3857 65.9524 70.3169 65.8441 70.2478C66.0471 70.2203 66.2095 70.1376 66.3038 70.0132C66.3988 69.9162 66.4663 69.7643 66.4663 69.5982C66.4663 69.4602 66.4125 69.3218 66.3583 69.2117C66.2912 69.1154 66.1826 69.032 66.0879 68.991C65.9796 68.9496 65.8032 68.9354 65.5465 68.9354H64.5586V71.2974H65.0316V70.3027H65.113C65.2213 70.3027 65.3027 70.3169 65.3568 70.3308C65.411 70.3447 65.4379 70.3722 65.4784 70.4135C65.4784 70.4274 65.4923 70.4274 65.4923 70.441C65.5465 70.4685 65.6275 70.5929 65.7494 70.7726L66.0879 71.2974H66.6423L66.3583 70.8414C66.2504 70.6617 66.155 70.5102 66.1009 70.4546ZM65.4784 69.9301C65.4515 69.9301 65.411 69.9301 65.3704 69.9301H65.0316V69.3361H65.384C65.4246 69.3361 65.4515 69.3361 65.4784 69.3361C65.6139 69.3361 65.7089 69.3361 65.7358 69.3493C65.8032 69.3493 65.8714 69.391 65.9119 69.4327C65.9657 69.4737 65.9796 69.5432 65.9796 69.6121C65.9796 69.6816 65.9657 69.7643 65.9252 69.806C65.8846 69.8335 65.8441 69.8748 65.8032 69.9023C65.7494 69.9162 65.6408 69.9162 65.4784 69.9301Z" fill="#D38D47" fill-opacity="0.5"/>
<path fill-rule="evenodd" clip-rule="evenodd" d="M37.7606 57.4703H22.3181C26.9332 60.3846 32.3334 62.3188 38.4781 63.6173L37.7606 57.4703ZM49.5359 57.4835L48.6151 63.2576C54.7873 62.0977 60.228 60.2744 64.9512 57.4835H49.5359ZM47.7627 57.4564L39.2766 57.4703C40.4678 59.9981 41.9835 62.1252 43.7158 64.156C45.4216 62.0835 46.5583 59.9429 47.7627 57.4564ZM70.5946 53.6162L16.5792 53.5887C14.7798 52.1241 13.5617 51.3647 12.1135 49.4166H75.1288C73.721 50.9917 72.1103 52.4143 70.5946 53.6162ZM78.6476 44.6376L8.83807 44.6651C7.90426 43.3388 6.83464 41.4741 6.17165 39.9959H81.3143C80.6101 41.6538 79.663 43.1869 78.6476 44.6376ZM28.693 34.9403L4.31734 34.9538C2.08431 29.6914 0.676946 24.2621 0 17.5211C12.5596 19.8004 22.2502 25.0636 28.693 34.9403ZM53.6632 34.9816H33.6193C33.1725 21.8173 36.7458 8.45913 43.6481 0.420011C50.6593 8.25233 54.286 21.5546 53.6632 34.9816ZM83.3711 34.9538L58.5223 34.9681C65.3844 25.1188 75.2374 19.5519 88 17.5764C87.2011 24.1658 85.7126 29.7598 83.3711 34.9538Z" fill="#D38D47" fill-opacity="0.5"/>
</svg>
