<svg width="87" height="60" viewBox="0 0 87 60" fill="none" xmlns="http://www.w3.org/2000/svg">
<path d="M69.118 30.724C63.345 30.724 58.649 35.571 58.649 41.529C58.649 47.487 63.345 52.334 69.118 52.334C74.892 52.334 79.588 47.487 79.588 41.529C79.588 35.571 74.892 30.724 69.118 30.724ZM69.118 59.647C59.438 59.647 51.564 51.52 51.564 41.529C51.564 31.538 59.439 23.411 69.118 23.411C78.798 23.411 86.673 31.538 86.673 41.529C86.673 51.52 78.798 59.647 69.118 59.647ZM47.565 58.44H40.48V0H47.565V58.44ZM17.555 52.335C11.781 52.335 7.085 47.488 7.085 41.53C7.085 35.572 11.781 30.725 17.555 30.725C23.328 30.725 28.024 35.572 28.024 41.53C28.024 47.488 23.328 52.335 17.555 52.335ZM28.024 24.619V26.995C25.099 24.745 21.475 23.411 17.555 23.411C7.875 23.411 0 31.538 0 41.529C0 51.52 7.875 59.647 17.555 59.647C21.476 59.647 25.099 58.313 28.024 56.063V58.439H35.109V24.618H28.024V24.619Z" fill="#D38D47" fill-opacity="0.5"/>
</svg>
