<svg width="184" height="34" viewBox="0 0 184 34" fill="none" xmlns="http://www.w3.org/2000/svg">
<path d="M41.3467 19.125L44.4726 12.325L47.4563 19.125H41.3467ZM37.8656 26.775L40.0679 21.9583H48.593L50.6533 26.775H53.9212L44.4726 5.59583L34.5977 26.775H37.8656Z" fill="#D38D47" fill-opacity="0.5"/>
<path d="M58.6094 6.87083V9.70417H63.2271V26.775H66.2109V9.70417H70.7576V6.87083H58.6094Z" fill="#D38D47" fill-opacity="0.5"/>
<path d="M81.7697 6.87083H78.7148V26.775H81.7697V17.4958H90.3658V26.775H93.4206V6.87083H90.3658V14.6625H81.7697V6.87083Z" fill="#D38D47" fill-opacity="0.5"/>
<path d="M103.438 6.87083V26.775H112.318V23.9417H106.492V6.87083H103.438Z" fill="#D38D47" fill-opacity="0.5"/>
<path d="M131.5 6.87083H120.488V26.775H131.5V23.9417H123.472V17.2833H131.216V14.45H123.472V9.70417H131.5V6.87083Z" fill="#D38D47" fill-opacity="0.5"/>
<path d="M150.823 6.87083H138.604V9.70417H143.221V26.775H146.205V9.70417H150.823V6.87083Z" fill="#D38D47" fill-opacity="0.5"/>
<path d="M165.316 12.325L168.299 19.125H162.261L165.316 12.325ZM158.78 26.775L160.982 21.9583H169.507L171.567 26.775H174.835L165.387 5.59583L155.512 26.775H158.78Z" fill="#D38D47" fill-opacity="0.5"/>
<path d="M18.3998 16.2208L16.6237 22.3833L13.3558 23.7292L18.3998 16.2208L13.0716 19.7625L9.73259 18.6292L18.3998 16.2208L12.0059 15.5125L10.1588 12.5375L18.3998 16.2208L13.9241 11.6167L14.4214 8.14583L18.3998 16.2208L17.9735 9.84583L20.6021 7.50833L18.3998 16.2208L22.2361 11.05L25.7882 10.9792L18.3998 16.2208L24.6515 14.6625L27.4222 16.8583L18.3998 16.2208L24.1542 19.0542L24.8646 22.525L18.3998 16.2208L20.9573 22.1L19.2523 25.2167L18.3998 16.2208ZM29.1272 16.2917C29.1272 10.3417 24.2963 5.52499 18.3287 5.52499C12.3612 5.52499 7.53027 10.3417 7.53027 16.2917C7.53027 22.2417 12.3612 27.0583 18.3287 27.0583C24.2963 27.0583 29.1272 22.2417 29.1272 16.2917Z" fill="#D38D47" fill-opacity="0.5"/>
</svg>
