<svg width="90" height="69" viewBox="0 0 90 69" fill="none" xmlns="http://www.w3.org/2000/svg">
<path d="M0 0H90C90 0 48.5526 46.0991 27.8289 69C28.7171 67.2155 29.3092 65.7284 30.4934 64.2414C29.6053 64.2414 28.4211 60.375 27.5329 58.5905L23.9803 60.375C23.3882 60.9698 22.2039 60.6724 21.6118 60.0776C21.6118 59.7802 21.3158 59.7802 21.3158 59.4828C20.7237 58.2931 20.4276 57.1034 19.8355 55.6164C18.3553 56.5086 16.875 57.1034 15.3947 57.6983L0.888158 51.4526H11.25L15.9868 55.319C17.1711 54.1293 18.0592 52.3448 18.9474 51.4526H21.6118C22.5 52.3448 23.3882 54.1293 24.5724 55.319C25.7566 54.1293 26.9408 52.6422 28.125 51.75H29.9013C30.7895 52.6422 31.9737 54.1293 32.8618 55.0215H33.1579C33.1579 55.0215 34.9342 52.6422 35.8224 51.75H37.8947C37.8947 51.75 64.5395 11.5991 64.5395 11.3017C43.2237 7.43534 0 0 0 0Z" fill="#D38D47" fill-opacity="0.5"/>
<path d="M26.3485 23.7931L11.5459 15.4655L37.8946 21.7112L26.3485 23.7931Z" fill="#D38D47" fill-opacity="0.5"/>
</svg>
