<svg width="176" height="42" viewBox="0 0 176 42" fill="none" xmlns="http://www.w3.org/2000/svg">
<path d="M16.0096 13.8904C15.6561 14.194 15.3278 14.7253 15.0248 15.0795C14.7723 15.3578 14.4945 15.9398 14.0653 15.8892C13.838 15.5349 13.6865 15.0542 13.434 14.6747C13.1815 14.2699 12.8027 13.8651 12.626 13.4349C12.2724 12.5494 13.5855 13.1566 13.9895 13.2578C14.5955 13.4096 15.2268 13.4602 15.8328 13.6626L16.0096 13.8904ZM20.8578 22.012C21.0093 21.8096 21.2113 21.3289 21.4386 21.2024C21.9689 20.9494 22.3981 21.6578 22.7011 22.012C23.3577 22.7964 23.1304 23.7325 22.8274 24.6687C22.5749 25.453 22.1456 26.0349 21.3628 25.5036C20.8831 25.1747 20.479 24.9976 19.9993 24.7193C19.9993 24.7193 19.6963 24.6434 19.5953 23.9602C19.4942 23.2771 20.1255 23.1253 20.3023 22.8217C20.4538 22.5434 20.6811 22.2904 20.8578 22.012ZM16.1106 17.6349C16.5904 17.1289 17.1964 16.3446 17.8529 16.041H18.2569C18.9892 16.1169 19.3175 16.6482 19.6205 17.2301C19.7973 17.559 20.0245 18.0145 19.9235 18.394C19.8478 18.6976 19.3427 19.0265 19.0902 19.2795C18.6105 19.7602 18.0802 20.9241 17.3479 21C16.6661 21.0506 16.3884 20.0639 16.0096 19.6337C15.7823 19.3554 15.4793 19.1783 15.4036 18.8241C15.2521 18.2169 15.7571 18.0145 16.1106 17.6349ZM23.2819 4.68072C23.0294 3.33976 20.8326 5.69277 20.2013 5.51566C20.1508 5.18674 20.2013 4.57952 19.9488 4.3518C19.6963 4.12409 18.964 4.2506 18.7367 4.52891C18.1559 5.18674 18.762 6.65421 18.8125 7.43855C18.1559 6.93253 17.0701 6.95783 16.4894 7.46385C16.2116 7.71687 15.5551 8.4253 15.4793 8.77952C15.3783 9.26024 16.0601 9.41205 16.4894 9.41205C17.2974 9.43735 18.8125 8.93132 19.2417 9.74096C19.6205 10.4747 19.974 13.0554 20.075 13.9157C18.9135 13.106 17.6004 11.6386 16.3379 11.2084C15.5298 10.9554 15.2521 10.4747 14.5955 10.0699C13.838 9.61446 13.0047 9.76626 12.5502 10.5253C12.2977 10.9301 12.2472 11.841 11.6159 11.7651L11.2877 11.8916C10.5806 11.9928 9.19181 11.7651 8.76254 12.3976C8.08076 13.4096 9.06556 14.4723 9.57058 15.3072C9.94934 15.9651 11.4392 17.1542 10.4291 17.8879C10.1766 18.0651 9.57058 18.2169 9.24231 18.1663C8.76254 18.0904 8.66154 17.7614 8.43428 17.3566C8.05551 16.7494 7.04547 15.1301 6.33844 16.0663C6.13643 16.3446 5.98492 16.9265 5.90917 17.2554C5.88392 17.4325 6.01017 17.812 5.90917 17.9386C5.50515 18.4193 4.49511 17.0783 4.11634 17.0277C2.82854 16.8506 3.61132 19.1783 3.99009 19.659C4.44461 20.2157 4.87388 20.3169 4.39411 20.8735C4.06584 21.2277 3.56082 21.506 3.25781 21.8855C2.95479 22.2651 2.98005 22.8976 3.30831 23.3277C3.63657 23.7578 4.01534 23.5554 4.41936 23.4036C4.64662 23.3277 4.87388 23.2012 5.10114 23.1C5.27789 23.0241 5.70716 22.6699 5.85867 22.6446C6.23743 22.5687 6.23743 22.7458 6.6162 22.6193C6.86871 22.5434 6.84346 22.2904 7.19698 22.3157C7.42424 23.0494 6.01018 25.6554 7.60099 25.2253C8.86355 24.8711 9.09081 22.5434 9.49482 21.506C9.94934 20.3675 10.8836 19.6337 12.1209 19.4313C13.0552 19.2795 13.7623 20.7217 14.1915 21.3795C15.1006 22.7458 15.2773 24.3398 16.7671 25.2759L15.8833 25.5542C13.8128 25.8325 11.1866 25.7566 9.21706 26.5157C8.30802 26.8699 7.702 27.553 7.60099 28.5145C7.37373 30.7663 9.79784 31.6012 11.5149 31.9048C12.828 32.1325 14.242 32.2843 15.5551 32.5626C16.7924 32.8157 18.1307 32.6892 19.368 32.841C18.3074 33.6 17.1206 33.5747 15.9338 34.0807C15.3278 34.3337 13.9895 35.0169 13.939 35.7253C13.8633 36.7626 16.0854 37.3446 16.6156 36.6867C16.9439 36.3072 16.7671 36.0542 17.3732 35.9277C18.1307 35.7759 18.56 35.8771 19.1407 36.3325C19.671 36.7374 19.772 37.5976 20.5295 37.5723C21.3123 37.547 21.0093 37.0157 21.4133 36.5349C22.1709 35.6494 23.7869 36.5349 24.7465 36.6108C24.9737 36.6361 25.201 36.5855 25.4283 36.5602C26.009 36.5096 26.8676 36.6867 27.4231 36.4084C27.8776 36.1807 27.9029 35.7759 27.5998 35.3205C27.2211 34.7639 26.7161 34.8145 26.1858 35.0422C25.1 35.4723 23.9637 35.447 23.0294 34.612C22.7769 34.4096 22.1961 34.2072 22.0951 33.9289L23.2819 33.4229C23.7617 33.2964 24.1657 33.094 24.6202 32.9169C25.3525 32.6639 27.3978 32.1072 27.0696 31.0193C26.6403 29.5771 23.7617 30.1084 22.6506 30.0831C20.479 30.0325 18.358 30.1843 16.2116 30.2096C15.2521 30.2096 14.2673 30.2349 13.3077 30.1084C12.8532 30.0325 12.3734 29.8301 11.9189 29.8048L11.5654 29.5265C10.1766 27.4265 17.2217 27.8819 18.0802 27.9072C19.772 27.9325 21.4133 28.1855 23.0042 28.5651C23.7112 28.7422 24.696 28.8687 25.2767 28.3879C25.8323 27.9325 25.7313 27.1229 25.7565 26.4651C25.7565 25.9337 25.6555 25.3518 25.5798 24.7952L25.9838 24.5928C26.3625 24.1626 26.7918 23.8843 27.0191 23.2771C27.5493 21.8855 27.4988 20.3169 27.9029 18.9253C28.3069 17.5084 29.0897 19.0265 29.4684 19.6084C30.1755 20.7217 31.034 21.8096 31.6653 22.9229C32.044 23.606 32.4733 24.112 33.4328 23.9855C33.8369 23.9349 34.2409 23.7325 34.4934 23.4036C35.1499 22.5434 34.8722 21.2783 35.2004 20.3675C35.7307 18.9759 36.8922 20.4687 36.9932 21.253C37.069 21.8349 37.0185 22.3157 37.675 22.0373C38.2558 21.7843 38.2811 21.4048 38.2811 20.7976C38.3063 19.7855 37.4225 19.7096 36.8922 18.9759C36.6902 18.6976 36.4882 18.1663 36.8165 17.8879C37.2205 17.5084 37.473 18.141 37.877 18.0904C38.6598 17.9892 37.7508 16.9771 37.6245 16.6482C37.3973 16.041 37.675 14.2952 36.9427 14.2952C35.9075 14.2952 35.6044 16.1675 34.9984 16.7241C34.4934 17.1795 34.3419 16.7494 34.3166 16.2181C34.2914 15.5602 34.1651 14.7759 34.3924 14.1434C34.5691 13.6626 34.8469 13.4349 34.8217 12.9036C34.7964 12.4482 34.6196 11.9675 34.5439 11.5373C34.4429 11.1072 34.3924 10.5506 34.0894 10.2217C33.8874 9.99397 32.9278 9.15903 32.5996 9.38674C32.3723 9.56385 32.4986 9.74096 32.4986 9.99397C32.5743 12.5241 32.8016 15.1554 32.8521 17.6855C32.8521 18.141 32.8773 18.5964 32.9278 19.0518C32.9783 19.5578 33.2813 20.1651 32.7258 20.2916C31.943 20.494 31.1855 19.6843 30.8825 19.1277C30.529 18.4446 30.0492 17.8626 29.6199 17.2048C29.1907 16.5217 28.3321 14.194 27.2716 14.194C25.605 14.1687 25.403 16.7494 25.0242 17.9892C24.898 18.4193 24.9737 19.4566 24.696 19.7349C24.393 20.0639 24.2162 19.3554 24.0394 19.0518C23.8879 18.7482 23.7112 18.4193 23.5849 18.0651C23.2062 17.0783 22.0951 16.2434 21.9689 15.206C21.8426 14.0928 21.8931 13.0048 22.0194 11.9169C22.1456 10.8036 22.3729 10.1964 23.0799 9.31084C23.6354 8.60241 24.7465 8.5518 25.5798 8.34939C25.9585 8.27349 26.9181 8.4 26.9938 7.94458C27.0696 7.48915 24.9232 6.95783 24.5192 6.85662C23.9384 6.70482 23.0042 6.85662 22.8779 6.2747C22.7769 5.69277 23.3577 5.16144 23.2819 4.68072ZM20.7821 0.759033C32.0188 0.759033 41.1344 9.89277 41.1344 21.1518C41.1344 32.4108 32.0188 41.5446 20.7821 41.5446C9.54533 41.5446 0.429688 32.4108 0.429688 21.1518C0.429688 9.86747 9.54533 0.759033 20.7821 0.759033Z" fill="#D38D47" fill-opacity="0.5"/>
<path d="M172.768 16.6988H172.97V14.9783H173.298C173.449 14.9783 173.55 15.0036 173.677 15.0542C173.803 15.1048 173.879 15.2819 173.879 15.4084C173.879 15.5855 173.778 15.7627 173.576 15.8133C173.5 15.8386 173.399 15.8386 173.172 15.8386L173.828 16.6988H174.055L173.525 15.9904C173.904 15.9651 174.081 15.6868 174.081 15.4084C174.081 15.1807 173.954 14.953 173.752 14.8771C173.677 14.8265 173.55 14.8012 173.273 14.8012H172.793V16.6988H172.768Z" fill="#D38D47" fill-opacity="0.5"/>
<path d="M67.5212 15.5855C66.2586 14.447 64.7688 13.8903 63.0265 13.8903C62.0922 13.8903 61.2589 14.0168 60.5771 14.2952C59.8701 14.5482 59.1883 15.0036 58.5065 15.6108C57.7743 14.953 57.0672 14.4976 56.3602 14.2699C55.6532 14.0168 54.7694 13.9156 53.7593 13.9156C52.7998 13.9156 51.916 14.1181 51.108 14.4976V13.2578H47.4971V29.906H51.2595H51.2847V20.0638C51.2847 19.3301 51.5372 18.6976 52.017 18.1662C52.522 17.6349 53.1281 17.3819 53.8351 17.3819C54.6179 17.3819 55.2744 17.6349 55.8047 18.1662C56.3602 18.6976 56.6127 19.3301 56.6127 20.0891V29.8807H60.4004V20.0385C60.4004 19.3048 60.6529 18.6976 61.1327 18.1662C61.6124 17.6349 62.2184 17.3819 62.9255 17.3819C63.683 17.3819 64.3143 17.6349 64.8446 18.1662C65.3748 18.6976 65.6526 19.3301 65.6526 20.0891V29.8807H69.3898V19.7855C69.415 18.1156 68.7837 16.6988 67.5212 15.5855Z" fill="#D38D47" fill-opacity="0.5"/>
<path d="M141.734 29.8807V8.653H145.674V19.5072L152.567 14.0928L154.865 17.0024L149.234 21.3542L158.021 31.2723L155.016 33.6L145.876 22.7458L145.674 22.6952V29.8807H141.734Z" fill="#D38D47" fill-opacity="0.5"/>
<path d="M132.316 29.7795C136.532 29.7795 139.664 27.1988 139.664 22.4421V13.2578H135.926V22.265C135.926 25.4024 133.755 26.1614 132.29 26.1614C130.826 26.1614 128.654 25.4024 128.654 22.265V13.2578H124.917V22.4421C124.917 27.1735 128.124 29.7795 132.316 29.7795Z" fill="#D38D47" fill-opacity="0.5"/>
<path d="M97.1654 13.2578C92.9485 13.2578 89.8174 15.8385 89.8174 20.5952V29.906H93.5545V20.747C93.5545 17.6096 95.7261 16.8506 97.1907 16.8506C98.6552 16.8506 100.827 17.6096 100.827 20.747V29.8807H104.564V20.5699C104.589 15.8385 101.382 13.2578 97.1654 13.2578Z" fill="#D38D47" fill-opacity="0.5"/>
<path d="M84.1113 21.6072C84.1113 24.5169 82.0407 26.465 79.4904 26.4144C76.94 26.3891 74.8694 24.1626 74.8694 21.4807C74.8694 18.7988 76.6875 16.5976 79.4904 16.5976C82.2932 16.5976 84.1113 18.5711 84.1113 21.6072ZM71.208 21.8349C71.208 23.9855 71.8645 25.7819 73.1776 27.2494C74.0361 28.2108 75.0714 28.9446 76.2582 29.4C77.243 29.8554 78.2783 29.9566 79.3389 29.9566C82.2427 29.9566 83.9851 27.8819 83.9851 27.8819V29.8554H87.596V21.7084C87.596 19.1277 86.8637 17.0277 85.2224 15.4843C83.581 13.941 81.6367 13.1819 79.3641 13.1819C75.5512 13.1819 71.208 15.8891 71.208 21.8349Z" fill="#D38D47" fill-opacity="0.5"/>
<path d="M168.551 21.6072C168.551 24.5169 166.48 26.465 163.93 26.4144C161.379 26.3891 159.309 24.1626 159.309 21.4807C159.309 18.7988 161.127 16.5976 163.93 16.5976C166.758 16.5976 168.551 18.5711 168.551 21.6072ZM155.647 21.8349C155.647 23.9855 156.304 25.7819 157.617 27.2494C158.476 28.2108 159.511 28.9446 160.698 29.4C161.682 29.8554 162.718 29.9566 163.778 29.9566C166.682 29.9566 168.424 27.8819 168.424 27.8819V29.8554H172.035V21.7084C172.035 19.1277 171.303 17.0277 169.662 15.4843C168.02 13.941 166.076 13.1819 163.804 13.1819C159.991 13.1819 155.647 15.8891 155.647 21.8349Z" fill="#D38D47" fill-opacity="0.5"/>
<path d="M119.16 8.72891V14.4976C117.847 13.6626 116.331 13.2325 114.665 13.2325C110.852 13.2325 106.509 15.9651 106.509 21.9108C106.509 24.0614 107.165 25.8578 108.478 27.3253C109.337 28.2867 110.372 29.0205 111.559 29.4759C112.544 29.9313 113.579 30.0325 114.64 30.0325C117.544 30.0325 119.286 27.9578 119.286 27.9578V29.9313H122.897V21.7843V8.72891H119.16ZM114.791 26.4904C112.241 26.4651 110.17 24.2386 110.17 21.5566C110.17 18.8747 111.988 16.6735 114.791 16.6735C117.594 16.6735 119.412 18.647 119.412 21.6831C119.412 24.5928 117.342 26.5157 114.791 26.4904Z" fill="#D38D47" fill-opacity="0.5"/>
<path d="M173.323 14.0928C172.388 14.0928 171.631 14.8518 171.631 15.788C171.631 16.7241 172.388 17.4831 173.323 17.4831C174.257 17.4831 175.014 16.7241 175.014 15.788C175.014 14.8518 174.257 14.0928 173.323 14.0928ZM173.323 17.1542C172.565 17.1542 171.934 16.547 171.934 15.7627C171.934 15.0036 172.54 14.3711 173.323 14.3711C174.08 14.3711 174.711 14.9783 174.711 15.7627C174.711 16.547 174.105 17.1542 173.323 17.1542Z" fill="#D38D47" fill-opacity="0.5"/>
</svg>
